<?xml version="1.0" encoding="UTF-8" standalone="no"?>
<!DOCTYPE svg PUBLIC "-//W3C//DTD SVG 1.1//EN" "http://www.w3.org/Graphics/SVG/1.1/DTD/svg11.dtd">
<svg xmlns="http://www.w3.org/2000/svg" version="1.1" viewBox="0.00 0.00 81.00 81.00">
<path fill="#0c0d0d" d="
  M 24.73 47.44
  C 24.78 49.10 24.74 50.81 23.78 52.25
  Q 20.29 57.46 14.73 56.21
  C 6.57 54.36 6.51 42.58 14.47 40.48
  Q 20.08 38.99 23.60 43.91
  Q 23.85 44.26 24.27 44.17
  L 30.71 42.78
  Q 31.21 42.67 31.22 42.16
  Q 31.41 33.31 40.07 30.75
  A 0.92 0.92 0.0 0 0 40.72 29.86
  L 40.71 22.46
  Q 40.71 21.82 40.09 21.68
  C 34.48 20.36 32.50 13.75 35.67 9.20
  C 38.88 4.60 45.59 4.56 48.88 9.20
  C 52.37 14.13 49.64 20.37 44.03 21.81
  Q 43.49 21.95 43.49 22.50
  L 43.46 30.04
  Q 43.46 30.65 44.05 30.79
  Q 51.71 32.60 53.14 40.52
  A 0.87 0.86 2.9 0 0 53.74 41.18
  Q 54.84 41.50 55.28 40.43
  C 58.03 33.69 67.19 33.82 69.72 40.55
  C 71.59 45.52 67.85 50.86 62.53 50.86
  C 58.81 50.86 55.70 48.21 54.93 44.51
  A 1.05 1.03 3.5 0 0 54.23 43.73
  Q 53.75 43.57 53.28 43.76
  Q 52.88 43.92 52.77 44.34
  Q 52.03 47.12 49.91 49.41
  A 0.72 0.72 0.0 0 1 48.73 49.23
  Q 47.62 46.87 46.11 45.10
  Q 45.61 44.51 44.87 44.69
  Q 43.92 44.93 44.76 45.43
  C 45.22 45.70 45.59 45.91 45.89 46.37
  Q 48.72 50.74 51.51 55.08
  Q 51.83 55.59 52.40 55.40
  C 60.88 52.60 67.99 62.42 62.65 69.64
  C 59.47 73.95 53.06 74.74 49.19 71.28
  C 45.02 67.54 44.63 61.48 48.69 57.52
  A 0.78 0.78 0.0 0 0 48.81 56.56
  L 46.19 52.24
  Q 45.98 51.89 45.58 51.99
  Q 36.57 54.22 32.15 45.85
  Q 31.90 45.38 31.38 45.49
  L 25.24 46.79
  Q 24.72 46.90 24.73 47.44
  Z
  M 47.70 13.96
  A 5.36 5.36 0.0 0 0 42.34 8.60
  A 5.36 5.36 0.0 0 0 36.98 13.96
  A 5.36 5.36 0.0 0 0 42.34 19.32
  A 5.36 5.36 0.0 0 0 47.70 13.96
  Z
  M 40.35 37.66
  A 2.31 2.31 0.0 0 0 38.04 35.35
  A 2.31 2.31 0.0 0 0 35.73 37.66
  A 2.31 2.31 0.0 0 0 38.04 39.97
  A 2.31 2.31 0.0 0 0 40.35 37.66
  Z
  M 60.91 43.42
  Q 60.11 44.64 58.69 44.30
  Q 56.82 43.86 57.82 45.51
  C 59.67 48.57 63.21 49.43 65.94 47.04
  C 68.33 44.96 68.33 41.07 65.77 39.11
  C 63.05 37.03 59.55 37.90 57.80 40.82
  Q 57.40 41.48 58.17 41.38
  Q 60.03 41.12 60.90 42.39
  A 0.93 0.92 -45.7 0 1 60.91 43.42
  Z
  M 21.98 48.33
  A 5.33 5.33 0.0 0 0 16.65 43.00
  A 5.33 5.33 0.0 0 0 11.32 48.33
  A 5.33 5.33 0.0 0 0 16.65 53.66
  A 5.33 5.33 0.0 0 0 21.98 48.33
  Z
  M 61.68 64.21
  A 6.47 6.47 0.0 0 0 55.21 57.74
  A 6.47 6.47 0.0 0 0 48.74 64.21
  A 6.47 6.47 0.0 0 0 55.21 70.68
  A 6.47 6.47 0.0 0 0 61.68 64.21
  Z"
/>
</svg>
