<?xml version="1.0" encoding="UTF-8" standalone="no"?>
<!DOCTYPE svg PUBLIC "-//W3C//DTD SVG 1.1//EN" "http://www.w3.org/Graphics/SVG/1.1/DTD/svg11.dtd">
<svg xmlns="http://www.w3.org/2000/svg" version="1.1" viewBox="0.00 0.00 309.00 81.00">
<path fill="#101010" d="
  M 45.58 51.98
  Q 36.57 54.20 32.15 45.87
  Q 31.89 45.37 31.35 45.49
  L 25.26 46.78
  Q 24.65 46.91 24.70 47.54
  C 25.12 52.89 20.91 56.82 15.83 56.39
  C 7.01 55.65 5.84 42.83 14.42 40.49
  Q 20.05 38.96 23.59 43.91
  Q 23.84 44.26 24.26 44.17
  L 30.70 42.79
  Q 31.22 42.67 31.24 42.13
  Q 31.42 33.32 40.00 30.78
  Q 40.73 30.56 40.73 29.80
  L 40.71 22.46
  Q 40.71 21.83 40.10 21.68
  C 34.56 20.31 32.49 13.89 35.59 9.31
  C 38.82 4.56 45.71 4.52 48.98 9.34
  C 52.30 14.24 49.57 20.47 44.05 21.79
  Q 43.49 21.93 43.49 22.50
  L 43.46 30.04
  Q 43.46 30.64 44.04 30.78
  Q 51.73 32.63 53.12 40.47
  Q 53.19 40.81 53.45 41.03
  Q 53.97 41.45 54.60 41.16
  C 55.38 40.80 55.95 38.88 56.70 38.07
  C 63.61 30.66 74.73 40.23 68.41 48.09
  C 64.16 53.37 56.59 50.77 55.00 44.71
  Q 54.84 44.13 54.36 43.82
  Q 53.81 43.46 53.21 43.78
  Q 52.88 43.96 52.78 44.32
  Q 51.95 47.26 49.92 49.38
  A 0.70 0.70 0.0 0 1 48.82 49.26
  L 46.80 45.88
  A 1.00 0.85 9.5 0 0 46.59 45.63
  Q 44.90 44.13 44.55 44.90
  Q 44.38 45.27 44.73 45.45
  Q 45.56 45.90 46.10 46.72
  Q 48.87 50.95 51.50 55.08
  Q 51.83 55.59 52.40 55.40
  C 60.29 52.77 67.63 61.55 63.23 68.79
  Q 60.88 72.64 56.85 73.27
  C 47.54 74.73 42.36 64.20 48.72 57.42
  Q 49.09 57.01 48.81 56.55
  L 46.18 52.23
  Q 45.97 51.89 45.58 51.98
  Z
  M 47.70 13.96
  A 5.36 5.36 0.0 0 0 42.34 8.60
  A 5.36 5.36 0.0 0 0 36.98 13.96
  A 5.36 5.36 0.0 0 0 42.34 19.32
  A 5.36 5.36 0.0 0 0 47.70 13.96
  Z
  M 40.35 37.66
  A 2.31 2.31 0.0 0 0 38.04 35.35
  A 2.31 2.31 0.0 0 0 35.73 37.66
  A 2.31 2.31 0.0 0 0 38.04 39.97
  A 2.31 2.31 0.0 0 0 40.35 37.66
  Z
  M 61.02 43.01
  Q 60.49 44.76 58.70 44.30
  Q 56.89 43.83 57.79 45.47
  C 58.85 47.41 61.16 48.82 63.40 48.31
  C 70.90 46.59 67.72 35.63 60.36 38.46
  Q 58.73 39.09 57.76 40.89
  Q 57.54 41.31 58.01 41.35
  L 59.99 41.51
  A 1.17 1.17 0.0 0 1 61.02 43.01
  Z
  M 21.98 48.33
  A 5.33 5.33 0.0 0 0 16.65 43.00
  A 5.33 5.33 0.0 0 0 11.32 48.33
  A 5.33 5.33 0.0 0 0 16.65 53.66
  A 5.33 5.33 0.0 0 0 21.98 48.33
  Z
  M 61.68 64.21
  A 6.47 6.47 0.0 0 0 55.21 57.74
  A 6.47 6.47 0.0 0 0 48.74 64.21
  A 6.47 6.47 0.0 0 0 55.21 70.68
  A 6.47 6.47 0.0 0 0 61.68 64.21
  Z"
/>
<path fill="#101010" d="
  M 161.71 23.34
  L 171.53 23.34
  Q 172.23 23.34 172.23 24.03
  L 172.22 33.51
  Q 172.22 34.24 171.49 34.24
  L 161.53 34.25
  A 0.44 0.43 89.3 0 0 161.10 34.70
  Q 161.35 42.31 161.16 50.89
  C 160.99 58.52 165.72 57.82 171.46 57.69
  Q 172.20 57.67 172.21 58.41
  L 172.22 67.30
  Q 172.22 67.92 171.60 67.96
  C 158.57 68.72 148.83 66.32 149.14 51.28
  Q 149.30 43.07 149.17 34.84
  Q 149.17 34.24 148.56 34.24
  L 143.22 34.24
  Q 142.69 34.24 142.69 33.72
  L 142.67 23.95
  A 0.63 0.63 0.0 0 1 143.31 23.32
  L 148.68 23.36
  Q 149.21 23.36 149.21 22.83
  L 149.16 12.73
  Q 149.16 11.86 150.03 11.86
  L 160.51 11.88
  Q 161.06 11.88 161.10 12.44
  Q 161.39 17.48 161.07 22.67
  Q 161.03 23.34 161.71 23.34
  Z"
/>
<path fill="#101010" d="
  M 223.8038 45.2557
  A 23.99 23.32 -1.3 0 1 200.3491 69.1140
  A 23.99 23.32 -1.3 0 1 175.8362 46.3443
  A 23.99 23.32 -1.3 0 1 199.2909 22.4860
  A 23.99 23.32 -1.3 0 1 223.8038 45.2557
  Z
  M 198.7618 58.2932
  A 12.49 12.10 94.4 0 0 211.7843 46.7683
  A 12.49 12.10 94.4 0 0 200.6782 33.3868
  A 12.49 12.10 94.4 0 0 187.6557 44.9117
  A 12.49 12.10 94.4 0 0 198.7618 58.2932
  Z"
/>
<path fill="#101010" d="
  M 240.22 27.35
  C 247.03 20.88 258.25 20.85 264.48 28.45
  A 0.39 0.39 0.0 0 0 265.06 28.48
  C 271.42 22.01 282.53 20.57 289.84 25.67
  C 295.43 29.57 296.74 35.48 296.67 42.40
  Q 296.55 54.11 296.64 67.46
  A 0.58 0.57 -0.5 0 1 296.06 68.04
  L 285.28 68.02
  A 0.53 0.52 -0.0 0 1 284.75 67.50
  Q 284.74 56.36 284.81 43.39
  C 284.85 37.98 282.60 33.22 276.37 33.73
  Q 271.24 34.14 269.13 38.58
  Q 268.08 40.79 268.17 45.56
  Q 268.38 56.74 268.20 67.57
  Q 268.20 68.01 267.75 68.01
  L 256.77 68.04
  A 0.37 0.36 0.0 0 1 256.40 67.68
  Q 256.46 54.98 256.36 42.21
  C 256.27 29.75 239.60 31.40 239.68 43.63
  Q 239.76 55.84 239.71 67.54
  A 0.50 0.49 -0.0 0 1 239.21 68.03
  L 228.00 68.01
  A 0.26 0.26 0.0 0 1 227.74 67.75
  L 227.73 23.81
  A 0.47 0.47 0.0 0 1 228.20 23.34
  L 238.90 23.32
  A 0.78 0.78 0.0 0 1 239.68 24.15
  L 239.50 27.01
  Q 239.43 28.10 240.22 27.35
  Z"
/>
<path fill="#101010" d="
  M 125.82 65.08
  Q 117.29 70.32 107.50 67.74
  C 86.81 62.30 84.98 32.97 104.79 24.71
  Q 115.20 20.37 125.82 26.48
  Q 126.57 26.91 126.53 26.05
  L 126.43 24.22
  A 0.85 0.84 -1.6 0 1 127.28 23.33
  L 137.79 23.33
  Q 138.50 23.33 138.50 24.04
  L 138.50 67.39
  Q 138.50 68.02 137.86 68.02
  L 127.01 68.03
  Q 126.49 68.03 126.49 67.51
  L 126.48 65.45
  Q 126.47 64.69 125.82 65.08
  Z
  M 126.60 45.92
  A 12.02 12.02 0.0 0 0 114.58 33.90
  A 12.02 12.02 0.0 0 0 102.56 45.92
  A 12.02 12.02 0.0 0 0 114.58 57.94
  A 12.02 12.02 0.0 0 0 126.60 45.92
  Z"
/>
</svg>
