<?xml version="1.0" encoding="UTF-8" standalone="no"?>
<!DOCTYPE svg PUBLIC "-//W3C//DTD SVG 1.1//EN" "http://www.w3.org/Graphics/SVG/1.1/DTD/svg11.dtd">
<svg xmlns="http://www.w3.org/2000/svg" version="1.1" viewBox="0.00 0.00 232.00 81.00">
<path fill="#111111" d="
  M 84.75 23.34
  L 94.53 23.34
  Q 95.22 23.34 95.22 24.03
  L 95.22 33.51
  Q 95.22 34.24 94.49 34.24
  L 84.53 34.25
  A 0.43 0.42 -0.7 0 0 84.10 34.68
  Q 84.33 42.46 84.15 51.60
  C 84.01 58.59 89.60 57.83 94.57 57.67
  A 0.62 0.61 -0.9 0 1 95.21 58.28
  L 95.22 67.32
  Q 95.22 67.98 94.57 68.00
  C 86.88 68.33 77.31 68.16 73.63 60.43
  Q 71.95 56.91 72.13 49.76
  Q 72.34 41.52 72.16 34.64
  Q 72.14 34.23 71.73 34.23
  L 66.34 34.24
  Q 65.69 34.24 65.69 33.59
  L 65.67 23.95
  A 0.63 0.63 0.0 0 1 66.30 23.32
  L 71.69 23.35
  Q 72.22 23.35 72.22 22.81
  L 72.17 12.49
  A 0.60 0.60 0.0 0 1 72.77 11.88
  L 83.56 11.89
  Q 84.23 11.89 84.23 12.56
  L 84.16 22.75
  Q 84.15 23.34 84.75 23.34
  Z"
/>
<path fill="#111111" d="
  M 146.7938 45.2557
  A 23.99 23.32 -1.3 0 1 123.3391 69.1140
  A 23.99 23.32 -1.3 0 1 98.8262 46.3443
  A 23.99 23.32 -1.3 0 1 122.2809 22.4860
  A 23.99 23.32 -1.3 0 1 146.7938 45.2557
  Z
  M 121.7835 58.2948
  A 12.49 12.10 94.3 0 0 134.7859 46.7472
  A 12.49 12.10 94.3 0 0 123.6565 33.3852
  A 12.49 12.10 94.3 0 0 110.6541 44.9328
  A 12.49 12.10 94.3 0 0 121.7835 58.2948
  Z"
/>
<path fill="#111111" d="
  M 163.21 27.42
  Q 165.91 24.64 169.26 23.58
  Q 179.79 20.23 187.40 28.22
  Q 187.80 28.64 188.23 28.25
  Q 195.89 21.23 205.59 22.95
  Q 219.60 25.43 219.63 40.90
  Q 219.64 53.84 219.62 67.49
  A 0.55 0.55 0.0 0 1 219.07 68.04
  L 208.26 68.02
  A 0.45 0.45 0.0 0 1 207.81 67.58
  Q 207.67 55.83 207.84 43.70
  C 207.90 39.41 206.80 35.20 202.28 33.93
  Q 199.72 33.22 197.15 34.16
  Q 191.27 36.30 191.25 42.88
  Q 191.22 54.81 191.28 67.44
  Q 191.28 68.01 190.72 68.01
  L 179.99 68.04
  Q 179.41 68.05 179.41 67.47
  Q 179.42 56.93 179.40 45.56
  C 179.40 42.23 179.53 39.56 177.80 36.77
  C 176.28 34.31 173.00 33.23 170.20 33.77
  C 164.28 34.92 162.56 39.36 162.65 45.01
  Q 162.81 55.75 162.68 67.60
  A 0.44 0.44 0.0 0 1 162.23 68.03
  L 151.00 68.00
  A 0.26 0.25 -0.0 0 1 150.74 67.75
  L 150.73 24.06
  Q 150.73 23.35 151.44 23.34
  L 161.99 23.32
  A 0.76 0.76 0.0 0 1 162.73 24.24
  Q 162.42 25.73 162.60 27.21
  Q 162.68 27.96 163.21 27.42
  Z"
/>
<path fill="#111111" d="
  M 48.85 65.09
  C 36.69 72.44 21.55 67.95 15.66 54.76
  C 10.61 43.45 16.30 29.54 27.55 24.82
  Q 38.47 20.23 48.89 26.58
  Q 49.55 26.98 49.52 26.21
  L 49.44 24.22
  A 0.85 0.84 88.7 0 1 50.28 23.33
  L 61.04 23.32
  A 0.47 0.46 90.0 0 1 61.50 23.79
  L 61.50 67.77
  A 0.27 0.26 0.0 0 1 61.23 68.03
  L 50.01 68.03
  Q 49.49 68.03 49.49 67.51
  L 49.48 65.44
  Q 49.48 64.71 48.85 65.09
  Z
  M 49.60 45.92
  A 12.02 12.02 0.0 0 0 37.58 33.90
  A 12.02 12.02 0.0 0 0 25.56 45.92
  A 12.02 12.02 0.0 0 0 37.58 57.94
  A 12.02 12.02 0.0 0 0 49.60 45.92
  Z"
/>
</svg>
